# Blender 4.0.2
# www.blender.org
mtllib arrow.mtl
o Cylinder
v 0.000000 0.000000 -0.025000
v 0.000000 1.970030 -0.025000
v 0.004877 0.000000 -0.024520
v 0.004877 1.970030 -0.024520
v 0.009567 0.000000 -0.023097
v 0.009567 1.970030 -0.023097
v 0.013889 0.000000 -0.020787
v 0.013889 1.970030 -0.020787
v 0.017678 0.000000 -0.017678
v 0.017678 1.970030 -0.017678
v 0.020787 0.000000 -0.013889
v 0.020787 1.970030 -0.013889
v 0.023097 0.000000 -0.009567
v 0.023097 1.970030 -0.009567
v 0.024520 0.000000 -0.004877
v 0.024520 1.970030 -0.004877
v 0.025000 0.000000 -0.000000
v 0.025000 1.970030 -0.000000
v 0.024520 0.000000 0.004877
v 0.024520 1.970030 0.004877
v 0.023097 0.000000 0.009567
v 0.023097 1.970030 0.009567
v 0.020787 0.000000 0.013889
v 0.020787 1.970030 0.013889
v 0.017678 0.000000 0.017678
v 0.017678 1.970030 0.017678
v 0.013889 0.000000 0.020787
v 0.013889 1.970030 0.020787
v 0.009567 0.000000 0.023097
v 0.009567 1.970030 0.023097
v 0.004877 0.000000 0.024520
v 0.004877 1.970030 0.024520
v 0.000000 0.000000 0.025000
v 0.000000 1.970030 0.025000
v -0.004877 0.000000 0.024520
v -0.004877 1.970030 0.024520
v -0.009567 0.000000 0.023097
v -0.009567 1.970030 0.023097
v -0.013889 0.000000 0.020787
v -0.013889 1.970030 0.020787
v -0.017678 0.000000 0.017678
v -0.017678 1.970030 0.017678
v -0.020787 0.000000 0.013889
v -0.020787 1.970030 0.013889
v -0.023097 0.000000 0.009567
v -0.023097 1.970030 0.009567
v -0.024520 0.000000 0.004877
v -0.024520 1.970030 0.004877
v -0.025000 0.000000 -0.000000
v -0.025000 1.970030 -0.000000
v -0.024520 0.000000 -0.004877
v -0.024520 1.970030 -0.004877
v -0.023097 0.000000 -0.009567
v -0.023097 1.970030 -0.009567
v -0.020787 0.000000 -0.013889
v -0.020787 1.970030 -0.013889
v -0.017678 0.000000 -0.017678
v -0.017678 1.970030 -0.017678
v -0.013889 0.000000 -0.020787
v -0.013889 1.970030 -0.020787
v -0.009567 0.000000 -0.023097
v -0.009567 1.970030 -0.023097
v -0.004877 0.000000 -0.024520
v -0.004877 1.970030 -0.024520
v 0.022361 2.000000 -0.112416
v 0.000000 2.000000 -0.114618
v 0.043863 2.000000 -0.105894
v 0.063679 2.000000 -0.095302
v 0.081047 2.000000 -0.081047
v 0.095302 2.000000 -0.063679
v 0.105894 2.000000 -0.043863
v 0.112416 2.000000 -0.022361
v 0.114618 2.000000 -0.000000
v 0.112416 2.000000 0.022361
v 0.105894 2.000000 0.043863
v 0.095302 2.000000 0.063679
v 0.081047 2.000000 0.081047
v 0.063679 2.000000 0.095302
v 0.043863 2.000000 0.105894
v 0.022361 2.000000 0.112416
v 0.000000 2.000000 0.114618
v -0.022361 2.000000 0.112416
v -0.043863 2.000000 0.105894
v -0.063679 2.000000 0.095302
v -0.081047 2.000000 0.081047
v -0.095302 2.000000 0.063679
v -0.105894 2.000000 0.043863
v -0.112416 2.000000 0.022361
v -0.114618 2.000000 -0.000000
v -0.112416 2.000000 -0.022361
v -0.105894 2.000000 -0.043863
v -0.095302 2.000000 -0.063679
v -0.081047 2.000000 -0.081047
v -0.063679 2.000000 -0.095302
v -0.043863 2.000000 -0.105894
v -0.022361 2.000000 -0.112416
v -0.000000 2.486995 -0.000000
vn 0.0980 -0.0000 -0.9952
vn 0.2903 -0.0000 -0.9569
vn 0.4714 -0.0000 -0.8819
vn 0.6344 -0.0000 -0.7730
vn 0.7730 -0.0000 -0.6344
vn 0.8819 -0.0000 -0.4714
vn 0.9569 -0.0000 -0.2903
vn 0.9952 -0.0000 -0.0980
vn 0.9952 -0.0000 0.0980
vn 0.9569 -0.0000 0.2903
vn 0.8819 -0.0000 0.4714
vn 0.7730 -0.0000 0.6344
vn 0.6344 -0.0000 0.7730
vn 0.4714 -0.0000 0.8819
vn 0.2903 -0.0000 0.9569
vn 0.0980 -0.0000 0.9952
vn -0.0980 -0.0000 0.9952
vn -0.2903 -0.0000 0.9569
vn -0.4714 -0.0000 0.8819
vn -0.6344 -0.0000 0.7730
vn -0.7730 -0.0000 0.6344
vn -0.8819 -0.0000 0.4714
vn -0.9569 -0.0000 0.2903
vn -0.9952 -0.0000 0.0980
vn -0.9952 -0.0000 -0.0980
vn -0.9569 -0.0000 -0.2903
vn -0.8819 -0.0000 -0.4714
vn -0.7730 -0.0000 -0.6344
vn -0.6344 -0.0000 -0.7730
vn -0.4714 -0.0000 -0.8819
vn -0.2903 -0.0000 -0.9569
vn -0.0980 -0.0000 -0.9952
vn -0.0000 -1.0000 -0.0000
vn -0.2809 -0.9479 -0.1502
vn 0.6177 0.2281 -0.7526
vn 0.1501 -0.9479 0.2809
vn 0.0312 -0.9479 -0.3170
vn -0.2462 -0.9479 -0.2021
vn 0.0925 -0.9479 0.3048
vn 0.0925 -0.9479 -0.3048
vn -0.2021 -0.9479 -0.2462
vn 0.0312 -0.9479 0.3170
vn 0.1501 -0.9479 -0.2809
vn -0.1501 -0.9479 -0.2809
vn -0.0312 -0.9479 0.3170
vn 0.2021 -0.9479 -0.2462
vn -0.0925 -0.9479 -0.3048
vn -0.0925 -0.9479 0.3048
vn 0.2462 -0.9479 -0.2021
vn -0.0312 -0.9479 -0.3170
vn -0.1501 -0.9479 0.2809
vn 0.2809 -0.9479 -0.1502
vn -0.2021 -0.9479 0.2462
vn 0.3048 -0.9479 -0.0925
vn -0.2462 -0.9479 0.2021
vn 0.3170 -0.9479 -0.0312
vn -0.2809 -0.9479 0.1502
vn 0.3170 -0.9479 0.0312
vn -0.3048 -0.9479 0.0925
vn 0.3048 -0.9479 0.0925
vn -0.3170 -0.9479 0.0312
vn 0.2809 -0.9479 0.1502
vn -0.3170 -0.9479 -0.0312
vn 0.2462 -0.9479 0.2021
vn -0.3048 -0.9479 -0.0925
vn 0.2021 -0.9479 0.2462
vn -0.2826 0.2281 -0.9317
vn -0.2826 0.2281 0.9317
vn 0.7526 0.2281 -0.6177
vn -0.0954 0.2281 -0.9690
vn -0.4590 0.2281 0.8587
vn 0.8587 0.2281 -0.4590
vn -0.6177 0.2281 0.7526
vn 0.9317 0.2281 -0.2826
vn -0.7526 0.2281 0.6177
vn 0.9690 0.2281 -0.0954
vn -0.8587 0.2281 0.4590
vn 0.9690 0.2281 0.0954
vn -0.9317 0.2281 0.2826
vn 0.9317 0.2281 0.2826
vn -0.9690 0.2281 0.0954
vn 0.8587 0.2281 0.4590
vn -0.9690 0.2281 -0.0954
vn 0.7526 0.2281 0.6177
vn -0.9317 0.2281 -0.2826
vn 0.6177 0.2281 0.7526
vn -0.8587 0.2281 -0.4590
vn 0.4590 0.2281 0.8587
vn 0.0954 0.2281 -0.9690
vn -0.7526 0.2281 -0.6177
vn 0.2826 0.2281 0.9317
vn 0.2826 0.2281 -0.9317
vn -0.6177 0.2281 -0.7526
vn 0.0954 0.2281 0.9690
vn 0.4590 0.2281 -0.8587
vn -0.4590 0.2281 -0.8587
vn -0.0954 0.2281 0.9690
vt 1.000000 0.500000
vt 1.000000 1.000000
vt 0.968750 1.000000
vt 0.968750 0.500000
vt 0.937500 1.000000
vt 0.937500 0.500000
vt 0.906250 1.000000
vt 0.906250 0.500000
vt 0.875000 1.000000
vt 0.875000 0.500000
vt 0.843750 1.000000
vt 0.843750 0.500000
vt 0.812500 1.000000
vt 0.812500 0.500000
vt 0.781250 1.000000
vt 0.781250 0.500000
vt 0.750000 1.000000
vt 0.750000 0.500000
vt 0.718750 1.000000
vt 0.718750 0.500000
vt 0.687500 1.000000
vt 0.687500 0.500000
vt 0.656250 1.000000
vt 0.656250 0.500000
vt 0.625000 1.000000
vt 0.625000 0.500000
vt 0.593750 1.000000
vt 0.593750 0.500000
vt 0.562500 1.000000
vt 0.562500 0.500000
vt 0.531250 1.000000
vt 0.531250 0.500000
vt 0.500000 1.000000
vt 0.500000 0.500000
vt 0.468750 1.000000
vt 0.468750 0.500000
vt 0.437500 1.000000
vt 0.437500 0.500000
vt 0.406250 1.000000
vt 0.406250 0.500000
vt 0.375000 1.000000
vt 0.375000 0.500000
vt 0.343750 1.000000
vt 0.343750 0.500000
vt 0.312500 1.000000
vt 0.312500 0.500000
vt 0.281250 1.000000
vt 0.281250 0.500000
vt 0.250000 1.000000
vt 0.250000 0.500000
vt 0.218750 1.000000
vt 0.218750 0.500000
vt 0.187500 1.000000
vt 0.187500 0.500000
vt 0.156250 1.000000
vt 0.156250 0.500000
vt 0.125000 1.000000
vt 0.125000 0.500000
vt 0.093750 1.000000
vt 0.093750 0.500000
vt 0.062500 1.000000
vt 0.062500 0.500000
vt 0.031250 1.000000
vt 0.031250 0.500000
vt 0.000000 1.000000
vt 0.000000 0.500000
vt 0.750000 0.490000
vt 0.796822 0.485388
vt 0.841844 0.471731
vt 0.883337 0.449553
vt 0.919706 0.419706
vt 0.949553 0.383337
vt 0.971731 0.341844
vt 0.985388 0.296822
vt 0.990000 0.250000
vt 0.985388 0.203178
vt 0.971731 0.158156
vt 0.949553 0.116663
vt 0.919706 0.080294
vt 0.883337 0.050447
vt 0.841844 0.028269
vt 0.796822 0.014612
vt 0.750000 0.010000
vt 0.703178 0.014612
vt 0.658156 0.028269
vt 0.616663 0.050447
vt 0.580294 0.080294
vt 0.550447 0.116663
vt 0.528269 0.158156
vt 0.514612 0.203178
vt 0.510000 0.250000
vt 0.514612 0.296822
vt 0.528269 0.341844
vt 0.550447 0.383337
vt 0.580294 0.419706
vt 0.616663 0.449553
vt 0.658156 0.471731
vt 0.703178 0.485388
s 0
f 1/1/1 2/2/1 4/3/1 3/4/1
f 3/4/2 4/3/2 6/5/2 5/6/2
f 5/6/3 6/5/3 8/7/3 7/8/3
f 7/8/4 8/7/4 10/9/4 9/10/4
f 9/10/5 10/9/5 12/11/5 11/12/5
f 11/12/6 12/11/6 14/13/6 13/14/6
f 13/14/7 14/13/7 16/15/7 15/16/7
f 15/16/8 16/15/8 18/17/8 17/18/8
f 17/18/9 18/17/9 20/19/9 19/20/9
f 19/20/10 20/19/10 22/21/10 21/22/10
f 21/22/11 22/21/11 24/23/11 23/24/11
f 23/24/12 24/23/12 26/25/12 25/26/12
f 25/26/13 26/25/13 28/27/13 27/28/13
f 27/28/14 28/27/14 30/29/14 29/30/14
f 29/30/15 30/29/15 32/31/15 31/32/15
f 31/32/16 32/31/16 34/33/16 33/34/16
f 33/34/17 34/33/17 36/35/17 35/36/17
f 35/36/18 36/35/18 38/37/18 37/38/18
f 37/38/19 38/37/19 40/39/19 39/40/19
f 39/40/20 40/39/20 42/41/20 41/42/20
f 41/42/21 42/41/21 44/43/21 43/44/21
f 43/44/22 44/43/22 46/45/22 45/46/22
f 45/46/23 46/45/23 48/47/23 47/48/23
f 47/48/24 48/47/24 50/49/24 49/50/24
f 49/50/25 50/49/25 52/51/25 51/52/25
f 51/52/26 52/51/26 54/53/26 53/54/26
f 53/54/27 54/53/27 56/55/27 55/56/27
f 55/56/28 56/55/28 58/57/28 57/58/28
f 57/58/29 58/57/29 60/59/29 59/60/29
f 59/60/30 60/59/30 62/61/30 61/62/30
f 61/62/31 62/61/31 64/63/31 63/64/31
f 63/64/32 64/63/32 2/65/32 1/66/32
f 1/67/33 3/68/33 5/69/33 7/70/33 9/71/33 11/72/33 13/73/33 15/74/33 17/75/33 19/76/33 21/77/33 23/78/33 25/79/33 27/80/33 29/81/33 31/82/33 33/83/33 35/84/33 37/85/33 39/86/33 41/87/33 43/88/33 45/89/33 47/90/33 49/91/33 51/92/33 53/93/33 55/94/33 57/95/33 59/96/33 61/97/33 63/98/33
f 56/55/34 54/53/34 91/53/34 92/55/34
f 69/9/35 68/7/35 97/9/35
f 30/29/36 28/27/36 78/27/36 79/29/36
f 4/3/37 2/2/37 66/2/37 65/3/37
f 58/57/38 56/55/38 92/55/38 93/57/38
f 32/31/39 30/29/39 79/29/39 80/31/39
f 6/5/40 4/3/40 65/3/40 67/5/40
f 60/59/41 58/57/41 93/57/41 94/59/41
f 34/33/42 32/31/42 80/31/42 81/33/42
f 8/7/43 6/5/43 67/5/43 68/7/43
f 62/61/44 60/59/44 94/59/44 95/61/44
f 36/35/45 34/33/45 81/33/45 82/35/45
f 10/9/46 8/7/46 68/7/46 69/9/46
f 64/63/47 62/61/47 95/61/47 96/63/47
f 38/37/48 36/35/48 82/35/48 83/37/48
f 12/11/49 10/9/49 69/9/49 70/11/49
f 2/65/50 64/63/50 96/63/50 66/65/50
f 40/39/51 38/37/51 83/37/51 84/39/51
f 14/13/52 12/11/52 70/11/52 71/13/52
f 42/41/53 40/39/53 84/39/53 85/41/53
f 16/15/54 14/13/54 71/13/54 72/15/54
f 44/43/55 42/41/55 85/41/55 86/43/55
f 18/17/56 16/15/56 72/15/56 73/17/56
f 46/45/57 44/43/57 86/43/57 87/45/57
f 20/19/58 18/17/58 73/17/58 74/19/58
f 48/47/59 46/45/59 87/45/59 88/47/59
f 22/21/60 20/19/60 74/19/60 75/21/60
f 50/49/61 48/47/61 88/47/61 89/49/61
f 24/23/62 22/21/62 75/21/62 76/23/62
f 52/51/63 50/49/63 89/49/63 90/51/63
f 26/25/64 24/23/64 76/23/64 77/25/64
f 54/53/65 52/51/65 90/51/65 91/53/65
f 28/27/66 26/25/66 77/25/66 78/27/66
f 96/63/67 95/61/67 97/63/67
f 83/37/68 82/35/68 97/37/68
f 70/11/69 69/9/69 97/11/69
f 66/65/70 96/63/70 97/65/70
f 84/39/71 83/37/71 97/39/71
f 71/13/72 70/11/72 97/13/72
f 85/41/73 84/39/73 97/41/73
f 72/15/74 71/13/74 97/15/74
f 86/43/75 85/41/75 97/43/75
f 73/17/76 72/15/76 97/17/76
f 87/45/77 86/43/77 97/45/77
f 74/19/78 73/17/78 97/19/78
f 88/47/79 87/45/79 97/47/79
f 75/21/80 74/19/80 97/21/80
f 89/49/81 88/47/81 97/49/81
f 76/23/82 75/21/82 97/23/82
f 90/51/83 89/49/83 97/51/83
f 77/25/84 76/23/84 97/25/84
f 91/53/85 90/51/85 97/53/85
f 78/27/86 77/25/86 97/27/86
f 92/55/87 91/53/87 97/55/87
f 79/29/88 78/27/88 97/29/88
f 65/3/89 66/2/89 97/3/89
f 93/57/90 92/55/90 97/57/90
f 80/31/91 79/29/91 97/31/91
f 67/5/92 65/3/92 97/5/92
f 94/59/93 93/57/93 97/59/93
f 81/33/94 80/31/94 97/33/94
f 68/7/95 67/5/95 97/7/95
f 95/61/96 94/59/96 97/61/96
f 82/35/97 81/33/97 97/35/97
